<?xml version="1.0" standalone="no"?><!DOCTYPE svg PUBLIC "-//W3C//DTD SVG 1.1//EN" "http://www.w3.org/Graphics/SVG/1.1/DTD/svg11.dtd"><svg t="1742962390614" class="icon" viewBox="0 0 1024 1024" version="1.1" xmlns="http://www.w3.org/2000/svg" p-id="1498" xmlns:xlink="http://www.w3.org/1999/xlink" width="32" height="32"><path d="M957.741176 725.835294h-9.035294c-36.141176 0-66.258824-27.105882-66.258823-63.247059v-259.011764c0-36.141176 30.117647-63.247059 66.258823-63.247059h9.035294c36.141176 0 66.258824 27.105882 66.258824 63.247059V662.588235c0 36.141176-30.117647 63.247059-66.258824 63.247059z m-183.717647 96.376471h-72.282353v138.541176c0 36.141176-30.117647 63.247059-66.258823 63.247059h-9.035294c-36.141176 0-66.258824-27.105882-66.258824-63.247059v-138.541176H451.764706v138.541176c0 36.141176-30.117647 63.247059-66.258824 63.247059h-9.035294c-36.141176 0-66.258824-27.105882-66.258823-63.247059v-138.541176H246.964706C210.823529 822.211765 180.705882 795.105882 180.705882 758.964706v-391.529412-21.082353h659.576471v412.611765c0 33.129412-30.117647 63.247059-66.258824 63.247059z m-427.670588-722.82353L292.141176 6.023529c0-3.011765 0-6.023529 3.011765-6.023529h3.011765c3.011765 0 6.023529 0 6.023529 3.011765l54.211765 93.364706c42.164706-18.070588 87.341176-30.117647 135.529412-30.117647h36.141176c45.176471 0 90.352941 9.035294 129.505883 27.105882l54.211764-90.352941c0-3.011765 3.011765-3.011765 6.02353-3.011765h3.011764c3.011765 0 3.011765 3.011765 3.011765 6.023529l-54.211765 90.352942c87.341176 42.164706 150.588235 123.482353 168.658824 219.858823H183.717647c18.070588-93.364706 78.305882-171.670588 162.635294-216.847059z m313.22353 120.470589c18.070588 0 36.141176-12.047059 36.141176-27.105883s-15.058824-27.105882-36.141176-27.105882c-18.070588 0-33.129412 12.047059-33.129412 27.105882-3.011765 15.058824 15.058824 27.105882 33.129412 27.105883z m-307.2 3.011764c18.070588 0 33.129412-12.047059 33.129411-27.105882s-15.058824-27.105882-33.129411-27.105882c-18.070588 0-33.129412 12.047059-33.129412 27.105882s15.058824 27.105882 33.129412 27.105882zM75.294118 725.835294h-9.035294C30.117647 725.835294 0 698.729412 0 662.588235v-259.011764c0-36.141176 30.117647-63.247059 66.258824-63.247059h9.035294c36.141176 0 66.258824 27.105882 66.258823 63.247059V662.588235c0 36.141176-30.117647 63.247059-66.258823 63.247059z" fill="#63C886" p-id="1499"></path></svg>